<?xml version="1.0" standalone="no"?>
<!DOCTYPE svg PUBLIC "-//W3C//DTD SVG 20010904//EN"
 "http://www.w3.org/TR/2001/REC-SVG-20010904/DTD/svg10.dtd">
<svg version="1.0" xmlns="http://www.w3.org/2000/svg"
 width="48.000000pt" height="48.000000pt" viewBox="0 0 48.000000 48.000000"
 preserveAspectRatio="xMidYMid meet">

<g transform="translate(0.000000,48.000000) scale(0.100000,-0.100000)"
fill="#000000" stroke="none">
<path d="M291 463 c-53 -28 -75 -64 -76 -128 0 -44 -5 -59 -24 -77 l-23 -23 5
64 c4 48 3 61 -6 52 -7 -7 -12 -41 -13 -77 -1 -62 -17 -114 -37 -114 -5 0 -7
18 -5 40 2 25 0 39 -7 37 -14 -5 -18 -62 -6 -85 7 -13 6 -31 -2 -58 l-12 -38
-11 39 -12 40 -7 -28 c-5 -20 -3 -33 10 -47 11 -12 15 -27 10 -42 -5 -20 -4
-21 7 -7 7 8 28 19 47 25 19 5 36 15 38 21 4 10 -3 10 -27 2 -40 -14 -45 -8
-25 30 14 29 18 31 55 25 41 -7 90 1 90 14 0 4 -23 5 -51 3 -60 -4 -75 6 -53
37 13 19 24 22 78 22 49 0 69 5 90 21 14 11 26 25 26 31 0 6 -9 3 -21 -8 -14
-12 -40 -19 -86 -22 l-65 -4 22 30 c19 25 30 30 74 34 92 8 147 65 150 157 l1
46 -50 3 c-33 2 -62 -4 -84 -15z m119 -28 c0 -37 -35 -100 -68 -123 -15 -11
-45 -24 -66 -27 -36 -7 -38 -7 -27 13 6 11 25 23 43 27 45 10 68 33 68 67 0
24 -4 28 -29 28 -32 0 -71 -39 -71 -70 0 -10 -7 -23 -15 -30 -13 -11 -15 -8
-15 14 0 68 63 126 138 126 38 0 42 -2 42 -25z m-70 -55 c0 -18 -26 -40 -49
-40 -16 0 -13 21 6 42 21 24 43 23 43 -2z"/>
</g>
</svg>
